<svg id="Graphic_Elements" data-name="Graphic Elements" xmlns="http://www.w3.org/2000/svg" viewBox="0 0 1200 1200"><title>job716-</title><path id="path77943" d="M542.53,1145.93c-7-7.74-5.45-22.8,3.36-32.54A115.81,115.81,0,0,0,557,1099a42.41,42.41,0,0,1,10.62-11c12.79-8.77,14.7-25.17,3-25.17-9.71,0-14.49-3.39-14.49-10.29,0-8.85-1.76-12-9.17-16.61-4.32-2.67-8.38-8-11.47-15.11-2.63-6-5.61-12.61-6.62-14.6a18.53,18.53,0,0,1-1.85-7c0-1.87-2.58-6.52-5.72-10.35-10.68-13-15.07-19.19-15.07-21.28,0-1.14-3.74-6.81-8.31-12.6s-8.32-11.37-8.32-12.4-1.46-3.1-3.25-4.58c-5.08-4.22-25.67-37.12-31.41-50.19-1.35-3.08-6.27-9.73-10.92-14.78s-8.46-11.15-8.46-13.52-1-4.91-2.12-5.63c-2.81-1.73-10.6-17.34-17.61-35.31-3.12-8-8-18.06-10.93-22.35-6.05-9-6-29.77.13-39.16,1.88-2.88,3.81-12.08,4.55-21.64a271.13,271.13,0,0,1,4.21-30.14c4.44-20.49,8.77-47.2,10.24-63.18.72-7.89,2.21-16,3.31-18.07,4-7.45-13.14-5.22-17.8,2.32-.69,1.11-3.46,2-6.16,2s-7.63,1.56-11,3.47c-7.64,4.39-12.06,2.74-13.62-5.09-.92-4.6-2.68-6.44-7.05-7.35-18.42-3.83-18.88-32.13-.67-40.95a182.71,182.71,0,0,0,18.33-10.58c4.92-3.31,11.94-7.55,15.59-9.42s11.33-6.4,17.05-10.08,15.3-9.78,21.3-13.58c12.41-7.85,12.87-9.13,5.85-16.48-3.1-3.24-5.74-9.29-6.78-15.54-2.18-13-3.61-13.34-16.22-3.31-5.71,4.55-12.73,9.28-15.59,10.52a45.78,45.78,0,0,0-9.35,5.76c-14,11.78-32.22,10.08-32.22-3,0-3.94-3.55-5.31-7.71-3C333.74,525.11,299,532.4,295.54,523.5c-.64-1.65-4.25-4.6-8-6.54s-8.07-5.25-9.55-7.34c-2.16-3.07-4.41-3.56-11.73-2.55-8.21,1.12-9.41.71-12.74-4.38-4.26-6.49-9.73-6.27-30.5,1.27l-11.93,4.33-6-6a136.64,136.64,0,0,0-12.34-10.68c-3.63-2.73-6.91-7.53-7.76-11.37a42.2,42.2,0,0,0-3.79-10.5c-2.91-4.8,4.62-11.89,12.61-11.89,2.83,0,10.44-3.08,16.92-6.86a196.32,196.32,0,0,1,19.06-9.79c10.39-4.2,38.1-18.56,39.42-20.41,14.37-20.31,54.12-11.23,54.12,12.34,0,2.3,17.89,22.9,21.13,24.33.8.36,1.75-2.41,2.12-6.15.74-7.63,6.5-12.43,32.36-26.94,18.07-10.15,18-9.52,3.45-20.85-12.21-9.52-25.77-22.66-25.79-25,0-.75-4.65-6.18-10.33-12.07-7.15-7.42-10.73-13.07-11.65-18.39-1.52-8.77-8.21-20-17.74-29.72a64.28,64.28,0,0,1-10.7-16.24c-2.28-5.24-5.62-11.2-7.41-13.25-15.23-17.38-8.81-53,14.54-80.66,13.83-16.4,8.54-21-17.65-15.39-32.83,7-36.77,6.18-36.77-8.13,0-5.47,21.8-30.72,34.41-39.86,5.84-4.24,5.92-4.53,3.61-14.55-13.75-59.79-9.51-72,25.6-73.92,13.6-.74,29.87-2.45,36.16-3.82,32.34-7,56.06.7,56.15,18.3,0,1.91,1.87,6.28,4.13,9.71S423,88.94,423,91.52c0,4.52.53,4.65,14,3.56,40.22-3.23,46.93,6.91,21.44,32.4-15.88,15.87-19.31,20.67-14.8,20.67,1.09,0,3.2,2.57,4.7,5.72,2.63,5.5,3.61,5.8,26.35,8,40.52,4,73.72,12.39,97.8,24.73,10,5.13,19.21,9.32,20.48,9.32s3.52,1.68,5,3.73,6.93,6.72,12.07,10.38c20.53,14.6,34.2,35.86,36.58,56.87.81,7.16,3.06,14.43,5.37,17.37,2.19,2.78,4.84,10,5.89,16a112.06,112.06,0,0,0,10.32,31.25c2.58,5.27,4.67,6.65,9,5.93,1.71-.29,30,13.43,33.68,16.35,1.14.9,9.56,3.26,18.71,5.25,27.7,6,53.16,15.38,67.48,24.82,7.48,4.92,15.62,10,18.11,11.28s6.13,5.39,8.1,9.11c11.58,21.86,11.86,22.72,11.77,36.61-.09,15.42-6.42,37-18.07,61.62-6.18,13.07-7.9,18-12.74,36.38-3.91,14.86-13.57,14.59-18.46-.52-5.35-16.57-16.34-26.3-43.29-38.34-7.63-3.41-10.12,1.63-4.1,8.3,4.12,4.57,6.72,11.56,15.22,41,4.55,15.73,9,27.52,12.56,33.26,3.81,6.15,11.18,22.22,20.48,44.66,8.77,21.15,10.11,23.19,18.39,27.75,6.47,3.56,9.26,6.58,10.13,11,1,5.11,2.46,6.25,9.25,7.33a32.93,32.93,0,0,1,13.77,6.22c3.15,2.71,6.42,4.93,7.26,4.93s8.18,5.15,16.32,11.44,15.58,11.43,16.54,11.43,6.48,6.86,12.28,15.25c10.14,14.66,14.34,18.28,24.53,21.14,5.94,1.66,21.75,17.14,33.82,33.09,5.73,7.58,12.9,14.21,18.66,17.24,12.8,6.74,15.11,9.46,16.48,19.46,1.15,8.34,1.48,8.67,9.51,9.37a77.21,77.21,0,0,1,17.08,4l8.76,3.33-.87,20.92c-.72,17.48-1.56,21.67-5.12,25.45-4.36,4.64-5.87,17.21-2.52,21,8.6,9.77,7.2,48.84-2.6,72.43-4.22,10.16-7.21,19.69-6.65,21.17,1.54,4.14-6.79,13.37-12.11,13.37-12,0-24.08-11.21-24.08-22.41,0-3.27-1.43-10.76-3.18-16.66s-3-13.79-2.76-17.53c.47-7.54-5.08-19.89-9.75-21.68a4.75,4.75,0,0,1-3-4c0-2.05-1.74-2.5-6.22-1.6-6.27,1.25-18.72-2.48-18.72-5.62,0-.92-1.86-2.27-4.12-3s-7.18-5.56-10.91-10.75C900.8,892.88,888.31,884,882.45,884c-1.21,0-6.16-2.52-11-5.61s-13-7.76-18.14-10.4-16.37-10-24.95-16.39-19.33-13.37-23.9-15.53a41.5,41.5,0,0,1-13.35-10.73c-2.77-3.75-10.25-10.37-16.63-14.71-50.4-34.3-95.55-84.21-130.08-143.8-6.1-10.53-12.64-19.8-18.36-26-1.57-1.71-3.45-6.19-4.17-9.95-2.64-13.76-20.1-29.79-20.1-18.44a19.59,19.59,0,0,1-3.32,9.36c-2.12,3-3.05,7.7-2.55,12.89s-.16,8.51-1.76,9.12c-1.4.54-3.56,4.77-4.81,9.4s-3.13,8.42-4.17,8.42-3.41,3.51-5.24,7.8-4.72,10.49-6.4,13.79c-2.72,5.33-2.7,6.4.18,9.58,2.54,2.8,2.78,4.82,1.11,9.21-3.78,9.94-2.66,29.08,2.06,35.07,3.74,4.76,3.94,6.32,1.8,14.32-6.53,24.41-1.67,43.75,17.2,68.48,4.79,6.26,9.77,17.55,15.09,34.16,4.37,13.65,12,33.23,16.94,43.52s11,23.86,13.47,30.15,6.73,16.87,9.47,23.52,5,13.28,5,14.74,2.63,8.17,5.85,14.93c12,25.1,14.93,32.23,14.93,35.8,0,2,3.11,8.47,6.9,14.35,14.09,21.88,13.41,38-1.6,38-1.53,0-5.66,3.27-9.17,7.27-5.47,6.23-7.7,7.28-15.45,7.28-8.92,0-18.09,6-18.09,11.83,0,3.69-32.14,35.35-37.56,37a28.93,28.93,0,0,0-9.29,5.4c-2.48,2.26-8.09,4.12-13.51,4.47-5.1.34-11.59,2.23-14.42,4.21-7,4.9-17.21,4.62-21.93-.6Zm32.76-15c2.53-1.43,8.7-5.62,13.72-9.31,7-5.13,10-6.24,12.81-4.72,3.75,2,16.62-2.66,16.62-6,0-7.85,29-43.74,35.47-43.83,1.79,0,5.32-2.85,7.86-6.28,5.12-6.92,14.88-8.8,14.88-2.86,0,2.7.59,2.88,3,.87,2.57-2.13,2.6-3.45.19-9.08-1.55-3.63-4.24-11.28-6-17-5.66-18.54-8.1-24.58-19.75-48.85-6.31-13.15-13-28.58-14.82-34.3-4.24-13.17-17.38-38.88-21.7-42.47-1.81-1.49-3.28-3.82-3.28-5.17s-3.26-10.35-7.24-20-7.26-19.43-7.28-21.72c0-7-31.64-68.06-35.79-69.14-2.68-.7-3.74-3-3.74-8,0-8.65-1.7-8.79-9.36-.8-3.28,3.43-7.7,6.24-9.81,6.24s-5.92,1.34-8.45,3c-6.71,4.35-24.1,9.88-26.47,8.42-2.68-1.65-2.64-7.24.06-7.24s41.55-39,41.55-41.84c0-1.22,2.86-4.88,6.35-8.14,5.91-5.52,6.14-6.26,3.32-10.71-2.56-4-2.63-6.7-.42-17.25,4-19-3.52-26.28-10.32-10a78.46,78.46,0,0,1-8.35,14.42c-2.82,3.7-5.13,7.65-5.13,8.78S530,734.22,526,739.46s-7.28,10-7.28,10.56c0,5.76-37.15,30.1-46,30.1h-5.95l4.25-7.79a174.31,174.31,0,0,1,11.27-17.15c3.86-5.15,9.65-13.09,12.86-17.64a161.32,161.32,0,0,1,14.17-16.71c4.57-4.63,11.14-11.74,14.6-15.81s7.24-7.77,8.4-8.24c2.65-1.06,15.24-19.75,17.75-26.35,2.58-6.81,8.77-5.22,10.35,2.66,1.39,6.9,1.12,7.32,9-14.13,2.86-7.76,6.64-16.15,8.39-18.65,9.08-13,1.18-12.7-14.59.49a170.5,170.5,0,0,1-24.17,16.58c-6.49,3.43-12.44,7.28-13.22,8.54S520.19,670,515,672.26a74.53,74.53,0,0,0-16.47,10.22c-3.87,3.39-7.9,6.18-9,6.18-2.12,0-20.79,17.58-20.79,19.6,0,.7-7.32,8.26-16.27,16.8C436,740.82,434,744.17,422.25,774.44c-6.92,17.9-6.83,20.81,1,33,5.84,9.11,12.27,13.29,12.27,8,0-3.78,5.38-2.17,13.66,4.1,4.49,3.39,9.75,6.2,11.7,6.23a6.87,6.87,0,0,1,5.2,2.77c3.42,5.59,27.35,16.36,26.15,11.78-1.49-5.69,3.71-5.31,15.2,1.1,9.78,5.46,15.39,6.6,15.39,3.12,0-3.87,11.39-2.12,28.59,4.38,5.07,1.92,6.16,7.85,2.18,11.83s-19.65,3-28.69-1.66c-8.33-4.25-14.61-5.38-14.47-2.6.09,1.8,15.83,13.31,21.23,15.52,14.08,5.78,2,11.31-13.19,6-34.8-12.13-47.32-19.35-65.83-38-14.07-14.14-14.06-8.84,0,9.31,6,7.73,13.06,17,15.69,20.66s13.39,15.11,23.91,25.52,22.59,22.6,26.84,27.08a160.08,160.08,0,0,0,13,12.31c6.36,5,6.56,6.46,1.14,7.88-6.79,1.77-4.92,5.82,10.4,22.6,8,8.76,14.54,16.8,14.54,17.86s1.78,3.55,3.94,5.51c5.46,4.94,6.54,12.94,3.08,22.76-3.65,10.34-1.18,13.84,6.31,8.93,2.88-1.89,7-3.43,9-3.43a10,10,0,0,0,5.79-1.81c6.31-5.8,52.6-11.83,58.37-7.6,4.88,3.57.58,9.41-6.93,9.41-2.81,0-13,2.8-22.74,6.22s-22.95,6.62-29.46,7.11-12.2,1-12.66,1,.8,2,2.8,4.2c4.22,4.66,2.88,7.89-4.41,10.66-5.29,2-5.65,7.45-.44,6.74,4.49-.6,47.76-15.19,55.82-18.81,15-6.74,30.56-5.65,21.91,1.54-1.72,1.42-3.12,4.85-3.12,7.62,0,9-7.77,14-28.07,18.24s-30.14,9.44-30.14,16.21c0,5-5.58,12-9.59,12-3.31,0-11.88,9-15.62,16.4a79.9,79.9,0,0,1-7.47,11.31c-9.29,11.54,6.22,21.54,20.71,13.35ZM481.75,823.64c-8.51-1.68-11.19-3.58-29.71-21.18-9-8.51-9.63-10.26-5.34-13.82,2.21-1.83,5.2-1.22,13,2.62,25.68,12.65,26.14,12.77,44.43,12.4,9.72-.2,21.8-.67,26.83-1,11.83-.88,13.12,2.77,2.88,8.16-4.33,2.28-12.46,6.61-18.06,9.61-10.58,5.67-18.13,6.39-34,3.25Zm191.35,243,4.59-4.44-5.19,1.3a46.91,46.91,0,0,1-8.84,1.32A3.46,3.46,0,0,0,660,1068C660,1072.6,667.8,1071.82,673.1,1066.68Zm316.17-85.3c7-6.16,12.14-21.69,9.88-29.65-1.29-4.53,2.06-11.15,6.19-12.23,2.79-.73,4-2.28,3.3-4.15a5.4,5.4,0,0,1,1.14-5.28c1.66-1.66,1.67-3.59,0-7-4-8.23-13.8-42-13.51-46.26.45-6.4,4.87-13.32,7.8-12.2,3.4,1.31,6-2.89,6.43-10.29.35-6.32-.65-6.1-4.19,1-3.35,6.65-6.79,6.88-8.38.57-1.77-7.05,4.1-14.66,8.48-11,2.19,1.83,2.79,1.39,2.79-2.08,0-2.93-1.31-4.41-3.91-4.41-8.77,0-26.81-10.33-28.23-16.16s-56.1-60.74-60.57-60.74c-1.32,0-3.53-1.36-4.91-3s-5.93-4.11-10.12-5.46c-9-2.87-15.71-8.51-22.15-18.56-20.14-31.44-48-54-66.66-54-7.23,0-11.32-3.23-11.32-8.91q0-3.91-8.06-7.07c-9.37-3.68-15-12.53-19.06-29.76-1.46-6.29-4.38-13-6.48-14.89-2.39-2.14-3.83-6.32-3.83-11,0-4.17-1.77-11.5-3.93-16.3s-5.61-14.12-7.67-20.73l-3.74-12L739,569.08c-12.94,12.74-13.59,12.55-38.51-11.12-17.71-16.82-25.8-15-37.67,8.57-3.89,7.72-8,14-9.08,14s-2.6,2.3-3.3,5.11-2.49,6.12-4,7.34c-2.77,2.3,6.31,28.1,12.44,35.36a27.26,27.26,0,0,1,4.14,8c.83,2.71,5.58,13.48,10.57,23.93s10.41,25.08,12.06,32.49c4.42,19.83,10.6,34.15,15.12,35a13.75,13.75,0,0,1,5.83,2.6,9.69,9.69,0,0,0,5.78,1.88,5.64,5.64,0,0,1,5,3.11c.66,1.72,2,3.12,3.09,3.12,1.53,0,21.89,11.43,37.16,20.87,16.11,10,70.27,31.93,107,43.44,16.47,5.15,46.77,19.06,46.77,21.47,0,8.51-29.37,12-55.08,6.55-5.37-1.14-4.8-.39,4.15,5.36A141.49,141.49,0,0,1,875.41,847,84,84,0,0,0,888,855.6c26,14.57,35.72,21.3,40.09,27.68,12.15,17.73,23,25,23,15.44,0-3.36.83-6.62,1.85-7.25s2.49-3.73,3.28-6.88a25.92,25.92,0,0,1,4.07-8.85c1.45-1.72,3.84-7.59,5.32-13,2.5-9.28,6.26-15.13,6.26-9.75,0,1.32,1.87,4.77,4.16,7.68,6.64,8.44,5.22,18.81-4.16,30.4-1.71,2.13-3,4.46-2.84,5.2.48,2.39-3.07,10.25-5.24,11.59-1.29.8-1.72,9.05-1.11,21.51,1.33,27.31,2.34,32.52,7.16,36.88a13.65,13.65,0,0,1,4.11,8.73q0,20,15.37,6.46ZM811.75,766.32c-25.07-4.7-56.12-18.76-56.12-25.41,0-3.26,1.12-3.08,17.67,3,19,6.93,34.24,10.61,51.14,12.38,16.06,1.67,20.75,3.75,17,7.5-2.64,2.65-20.87,4.23-29.68,2.58Zm-37.51-31.6c-5.73-4.64-4.27-7.67,4.56-9.44,3.64-.73,9.68-3.65,13.41-6.5s7.82-5.18,9.08-5.18,5.61-3.33,9.68-7.39c11.76-11.77,24.32.34,16.35,15.76-6.45,12.47-42.68,21.17-53.08,12.75ZM791.49,706c-6-2.43-.56-17.33,6.36-17.33,4.92,0,7.76,6.33,5.1,11.38-3.43,6.52-6.32,8-11.46,6Zm-264-82.29c2.55-1.43,8.39-6,13-10.17s10.37-8.19,12.88-8.95,5.09-3,5.73-5,4.43-4.82,8.43-6.27c8.16-2.95,8.46-10.07.73-17.51-2.12-2-3.87-4.61-3.87-5.71,0-11.15-19.22-20.88-26.91-13.62-6.7,6.34-13.84,7.16-22.46,2.6l-6.76-3.57L494.62,566c-7.5,5.76-14.57,10.45-15.74,10.45s-6.17,2.81-11.16,6.24c-12.38,8.52-22.74,6.32-12.94-2.75,5.59-5.17,20-16,21.37-16,2.7,0,21.72-13.2,21.72-15.07,0-2.2-16.25-18.19-18.48-18.19-8.51,0-41,21.4-42.66,28.12-2,8.05-17.12,18.44-27,18.55-4.86.06-13.6,2.55-20.34,5.82-6.51,3.14-12.71,5.71-13.78,5.71-6.25,0-6.68,6.11-1,14.3,7.22,10.43,9.35,10.5,23.28.77,24.09-16.8,44.05-24.75,43.82-17.44,0,.73-12.63,8.35-28,16.93s-28,16.75-28,18.18c-.07,4.43,3.33,3.06,29.67-12,28.88-16.46,28.79-16.43,34.36-9.35,5,6.41,6.41,6.42,12.4.11a25.28,25.28,0,0,1,10.9-6.36c3.38-.75,6.85-2.5,7.72-3.91,2.31-3.76,27.36-16.19,29.7-14.74,7.67,4.73-14.24,23.4-27.42,23.36-6.26,0-15.38,7.34-13.28,10.73,2.25,3.65,11.21,2.56,15.69-1.92,2.28-2.28,5.56-4.15,7.27-4.15s3.12-.94,3.12-2.08,2.47-2.08,5.49-2.08,6.7-1.64,8.19-3.64c2.47-3.31,3.23-3.35,8.38-.52,8.64,4.76,8.14,7.55-2.08,11.45-5.12,2-9.78,4.77-10.35,6.25s-3.9,3.33-7.41,4.1c-6.24,1.37-8.15,3.88-4.61,6.07,1,.61,3.55-.24,5.72-1.89s5.37-3,7.1-3.05,6.72-2.49,11.08-5.45c5.51-3.74,9.45-5,13-4.11,4.58,1.15,7.27,5.34,3.42,5.34-.89,0-4.69,2.8-8.44,6.23-7,6.43-5.91,8.22,2.29,3.65Zm-58.18-67c-.95-1.68-4-3.4-6.75-3.82-7.56-1.16-7.44-5,.3-9.68,9-5.46,8.59-5.59,11.65,4.21,3.35,10.73-.53,17.65-5.2,9.29ZM601,587.8c4.45-5.17,12.31-15,17.45-21.9s15.67-20,23.39-29.11,14-17.39,14-18.34,3.57-5.85,7.95-10.87c14.79-17,13.65-19.72-3.8-9.13-22.75,13.83-29.62,7.33-9.35-8.85a165.88,165.88,0,0,0,13.94-12.19c14.13-15.54,23.52-24.61,25-24.15,4.72,1.48,2.88-25.45-2.6-38-1-2.28-3.33-8.83-5.17-14.55a105.28,105.28,0,0,0-7.14-16.84c-2.08-3.56-5.41-13.38-7.41-21.83s-5-19.58-6.61-24.73-3.92-13.26-5.07-18-3.39-9.78-5-11.1-2.49-4.67-1.91-7.93c.85-4.87-6.05-17.3-8.15-14.67-.36.45-2.75,5.26-5.33,10.69-5.39,11.37-8.46,12.64-8.46,3.5a23.64,23.64,0,0,1,8.47-18.57c3.7-3-4.64-35.33-10.17-39.44-.81-.6-7.8-8.67-15.53-17.92C595.76,207.4,591.53,204,581,201c-2.85-.81-6.12-2.58-7.27-3.94s-6.3-3.72-11.44-5.26-10.4-3.59-11.68-4.54c-7.51-5.6-53.05-15.13-81.09-17l-19-1.25-1.23,6.17c-.68,3.4-.69,7.59,0,9.32,3.68,9.58-5.56,17.84-11.69,10.45-2.06-2.49-1.71-4.51,1.83-10.51,6.65-11.31,5.22-28.88-2.85-34.65-2.43-1.75-9.39,4.11-9.39,7.91,0,4.56-6.34,6.69-13.78,4.64-8.11-2.24-20.09,2.59-18.25,7.36,2.17,5.67-4.84,9-22.18,10.41-20.76,1.73-20.63,1.65-20.63,11.61v8l-6.29-2.37c-7-2.65-13.8,0-13,5.1,1.39,9,4.33,16.35,8.92,22.34,8.88,11.6,36.22,37.62,39.49,37.6,6.3,0,20.14-5.28,26.1-9.89,3.37-2.62,11-8.48,17-13.05s10.92-9.9,10.94-11.88c0-5.69,5.33-19.36,6.88-17.81,4.34,4.34-1.14,27.36-11.18,47-7.35,14.34-7.32,14-1.37,14,10,0,30.58,14.19,30.58,21.09,0,4.47-6.31,8.21-12.62,7.5-6.73-.77-6.9,2.9-.57,12.1a171.81,171.81,0,0,1,10.49,18.12c2.68,5.48,6.3,10.5,8.05,11.18,2.92,1.11,14.45,17.3,21.22,29.78A119.66,119.66,0,0,0,495.41,383c6,7.86,9.5,13.3,12.56,19.79,3.29,7,14.75,21.83,16.84,21.83s-2.59-15.28-5.84-19.57c-.94-1.24-4.15-9.74-7.12-18.89s-8.81-24.11-13-33.26c-6.75-14.85-9.12-20.23-15.53-35.33a79.59,79.59,0,0,1-3.1-9.36c-11.92-46.19-13-52-9.85-52,2.53,0,8.76,11.59,8.76,16.31,0,2.33.94,4.81,2.08,5.52s2.08,3.19,2.08,5.52,1.34,6.72,3,9.75,5.23,10.66,8,16.95,7.69,17.51,11,24.94,7.52,15.39,9.44,17.67a30.19,30.19,0,0,1,4.92,8.89c.79,2.61,4.88,8.8,9.08,13.76a157,157,0,0,1,11.79,15.86c2.29,3.75,6.51,10.66,9.38,15.34a120.63,120.63,0,0,0,12.67,16.36,220.37,220.37,0,0,1,15.56,19.18c9.53,13.31,11.24,13.95,11.24,4.21,0-5.92,1.13-7.8,6.21-10.43,3.72-1.93,6.73-5.49,7.53-8.89q1.74-7.45,14.93-28.55c6-9.51,10.74-21.13,10.78-26.18.06-6.24,6.83-13.3,11.18-11.64,5.63,2.17-1.77,28.75-11.48,41.24-8.12,10.45-7.56,12.17,4,12.18,14.9,0,26.91,8.1,20.92,14.09-3.49,3.5-.63,5.47,7.58,5.23s11.77,5,6.24,9.05c-5.15,3.76-19.66,5.72-22.37,3-1.26-1.26-4.39-2.29-7-2.29s-6.13-2.1-7.92-4.67L626.69,434l-11.92,6.29c-8.72,4.6-12.12,7.64-12.64,11.29-.39,2.75-3.35,7.46-6.58,10.47s-6.89,9.52-8.21,14.68c-4.18,16.34-6.47,20.13-21.22,35.12-15.92,16.17-16.74,19.49-5,20.48,15.46,1.29,41.22,46.65,30.31,53.39-2.53,1.56-2.79,11.43-.3,11.43,1,0,5.42-4.23,9.88-9.4ZM578.34,425.47c-8.85-11.16-18.43-36.65-23.54-62.66-1.64-8.33,6.16-10.19,8.68-2.08.79,2.58,4.95,12.16,9.22,21.31,23,49.2,25.51,68.47,5.64,43.43Zm-3-70.43c-9.17-4-8.64-5.33,5.19-13.29,51.1-29.38,58.73-31.23,48.86-11.82-12.58,24.71-33.07,34.23-54.05,25.11Zm-39.23-35.88c-5.66-11.51-5.6-39,.1-39,4.9,0,7.24,7.21,8.42,26C546,328,542.8,332.82,536.08,319.16Zm73-23.75c.54-8.21,1.94-15.88,3.11-17.05s2.12-5.67,2.12-10c0-11.72,3.41-9.56,4.77,3,1.32,12.22-.63,27.24-4.46,34.3-4.66,8.6-6.56,5.1-5.54-10.25ZM497.35,285.22c-7.17-4.18-4.41-10.93,6.53-16,16.76-7.69,23.16-4,14.24,8.15C511.61,286.3,504.07,289.13,497.35,285.22ZM370.2,246.16c-1.08-1.74,14.07-8.58,19-8.58,3.87,0,5.3,4.09,2.57,7.37s-19.7,4.25-21.58,1.21ZM543.6,244c0-4,18.32-21,22.64-21s2.25,4.12-7.65,14.5c-10.54,11.06-15,13-15,6.48Zm-180.82-8.79c0-2.79,16-9.48,27.79-11.64,9.76-1.8,5.56,4-6.14,8.46-14.69,5.6-21.68,6.62-21.65,3.18ZM347,226.15c-2.58-10.29,4.63-21.77,8.17-13,.83,2.08,1.08,2.08,1.21,0,.1-1.6,3.25-2.59,8.22-2.59,4.63,0,9.16-1.33,10.65-3.12,2.46-3,10.39-4.44,10.39-1.94,0,8-17.85,17.45-26,13.74-5-2.27-5.18-2.08-5.18,4.87,0,8.64-5.43,10.12-7.46,2Zm44.36-16c-4.11-5.15-4.49-7.1-1.71-8.82,3.39-2.09,16.78,5.61,16.78,9.65,0,5.52-10.46,4.94-15.07-.83Zm102.53-3c-7.13-9.08-5.95-14.68,1.93-9.08,4,2.85,6.24,6.26,6.24,9.5,0,6.55-2.79,6.41-8.17-.42ZM429.8,173.83c-3.67-1.47-3.23-8.89.61-10.37s4.87-.68,5.58,5.42c.58,5-1.64,6.77-6.19,5Zm369.47,333.7c3.62-5.89,7.46-12.67,8.54-15.07s4.23-8.12,7-12.7c10.85-17.9,11.49-20.33,11.4-43.36-.1-26-28.68-48.47-75.79-59.72-29.51-7-65.48-23.11-65.48-29.27,0-1-1.87-1.74-4.15-1.74-4.36,0-5.94,7.54-2.42,11.54,1.83,2.07,11.07,28.52,19.22,55,5.32,17.3,6.55,42.58,2.56,53-5.2,13.61-5.17,19.75.11,19.75,2.64,0,9.4,1.44,15,3.2s14.41,4.06,19.55,5.1,12.16,2.49,15.59,3.22c9.51,2,32.38,14,34.58,18.1,3.29,6.14,7.39,4.11,14.26-7Zm-43.61-43.32c-1.21-2.27-7.85-7.95-14.75-12.64s-12.15-9.61-11.67-10.95c1.39-3.92,11-2.12,19.5,3.65,10.29,7,10.22,7,15.41-5,9.07-21.1,13.8-2.84,5.79,22.34-2.54,8-10.64,9.46-14.28,2.65Zm-324.3-105c0-1.69-1.37-6.6-3-10.91s-4.53-18.13-6.35-30.7-4.19-23.76-5.27-24.85-2-5.57-2-9.95c0-7.38-.31-7.8-4.23-5.71-2.33,1.25-7.94,2.41-12.47,2.59s-8.24,1.13-8.24,2.1c0,2.33,7.29,20.16,14.63,35.81,3.22,6.86,6.51,15.27,7.3,18.7,3.26,14.14,19.64,33.24,19.64,22.91ZM306.64,261.59c0-4.19,9.73-22.3,14.07-26.18,12.74-11.37,11.39-28.48-1.44-18.23-11.8,9.43-23.49,47.43-14.59,47.43C305.76,264.61,306.64,263.26,306.64,261.59Zm-5.14-80.93c30.92-7,45.32-11.21,85.17-24.9,40.68-14,83.54-39.68,78.84-47.28-1.45-2.35-9.2-2.44-9.2-.11,0,2.77-10,6.57-17.25,6.58-3.66,0-9.79,1.91-13.61,4.25s-16.93,6.58-29.11,9.43a503.84,503.84,0,0,0-63.71,19.08c-8,2.92-18.86,5.47-24.13,5.67-13,.49-39.27,21.59-39.27,31.49,0,3.49-4.17,4,32.28-4.21Zm27.92-66.95a64,64,0,0,1,16.06-7.4c25.29-6.43,36.78-8.32,52.62-8.66,10.48-.22,17.5-1.22,17.25-2.46-.5-2.42-4.53-14.09-7.73-22.43-5.11-13.26-26.75-17.55-48.16-9.54-10.38,3.89-14.49,4.3-31.21,3.12-23.43-1.64-25.76,5-13.17,37.17a78.36,78.36,0,0,1,2.87,9.87c1.51,7,1.42,7,11.47.33ZM339.9,90c-9.91-9.91-2.35-13.71,25.46-12.8,12.29.4,12.89,3.91,2,11.48C357.57,95.44,345.9,96,339.9,90Z"/></svg>